# xmcd
#
# Track frame offsets:
#	150
#	19213
#	40288
#	59877
#	76855
#	94498
#	123008
#	143182
#	161249
#	181050
#	197925
#	227019
#
# Disc length: 3503 seconds
#
# Revision: 1
# Processed by: cddbd v1.5.2PL0 Copyright (c) Steve Scherf et al.
# Submitted via: audiograbber 1.83.01
#
DISCID=a60dad0c
DTITLE=Saiichi Sugiyama - Saiichi
DYEAR=2005
DGENRE=Blues
TTITLE0=She Loves You
TTITLE1=(I've Got No) Magic Wand
TTITLE2=Is That You Babe?
TTITLE3=You Can't Do That
TTITLE4=China Doll
TTITLE5=Let It Be
TTITLE6=Somewhere Down The Road
TTITLE7=It's You I Need (Just For Me)
TTITLE8=Politician
TTITLE9=The Night Before
TTITLE10=White Room
TTITLE11=Sunshine Of Your Love
EXTD=www.saiichi.com
EXTT0=
EXTT1=
EXTT2=
EXTT3=
EXTT4=
EXTT5=
EXTT6=
EXTT7=
EXTT8=
EXTT9=
EXTT10=
EXTT11=
PLAYORDER=
